PathFileType	4	(x/y/z)	S02_P20_T25
DataRate	CameraRate	NumFrames	NumMarkers	Units	OrigDataRate	OrigDataStartFrame	OrigNumFrames
240	240	4	51	mm	240	227	362
Frame#	Time	Sternum			R.Acromium			L.Acromium			Top.Head			R.ASIS			L.ASIS			R.PSIS			L.PSIS			R.Great.Tro			L.Great.Tro			R.Iliac.Crest			L.Iliac.Crest			V.Sacral			R.Thigh.Upper.Post			R.Thigh.Lower.Ant			R.Thigh.Lower.Post			R.Thigh.Upper.Ant			R.Knee.Lat			R.Knee.Med			R.Shank.Upper.Post			R.Shank.Lower.Ant			R.Shank.Lower.Post			R.Shank.Upper.Ant			R.Ankle.Lat			R.Ankle.Med			R.Heel.Upper			R.Heel.Med			R.Heel.Lat			R.Toe.Lat			R.Toe.Med			R.Toe.Tip			L.Thigh.Upper.Post			L.Thigh.Lower.Ant			L.Thigh.Lower.Post			L.Thigh.Upper.Ant			L.Knee.Lat			L.Knee.Med			L.Shank.Upper.Post			L.Shank.Lower.Ant			L.Shank.Lower.Post			L.Shank.Upper.Ant			L.Ankle.Lat			L.Ankle.Med			L.Heel.Upper			L.Heel.Med			L.Heel.Lat			L.Toe.Lat			L.Toe.Med			L.Toe.Tip			Cervical.Spine			Back			
		X1	Y1	Z1	X2	Y2	Z2	X3	Y3	Z3	X4	Y4	Z4	X5	Y5	Z5	X6	Y6	Z6	X7	Y7	Z7	X8	Y8	Z8	X9	Y9	Z9	X10	Y10	Z10	X11	Y11	Z11	X12	Y12	Z12	X13	Y13	Z13	X14	Y14	Z14	X15	Y15	Z15	X16	Y16	Z16	X17	Y17	Z17	X18	Y18	Z18	X19	Y19	Z19	X20	Y20	Z20	X21	Y21	Z21	X22	Y22	Z22	X23	Y23	Z23	X24	Y24	Z24	X25	Y25	Z25	X26	Y26	Z26	X27	Y27	Z27	X28	Y28	Z28	X29	Y29	Z29	X30	Y30	Z30	X31	Y31	Z31	X32	Y32	Z32	X33	Y33	Z33	X34	Y34	Z34	X35	Y35	Z35	X36	Y36	Z36	X37	Y37	Z37	X38	Y38	Z38	X39	Y39	Z39	X40	Y40	Z40	X41	Y41	Z41	X42	Y42	Z42	X43	Y43	Z43	X44	Y44	Z44	X45	Y45	Z45	X46	Y46	Z46	X47	Y47	Z47	X48	Y48	Z48	X49	Y49	Z49	X50	Y50	Z50	X51	Y51	Z51	

227	0.94167	-62.546	1086.7	328.05	-170.61	1322.5	477.14	-184.47	1329.3	183.68	-98.121	1604	319.48	-111.41	906.54	440.74	-83.652	907.55	231.73	-314.3	954.73	358.87	-311.5	958.89	284.96	-210.9	802.78	521.12	-186.68	815.97	129.97	-214.44	954.37	486.45	-201.55	957.45	151.8	-342.35	913.22	313.52	-257.68	600.97	496.28	-226.21	510.98	457.92	-296.89	521.57	473.66	-191.28	591.39	478.21	-306.73	441.58	456.97	-318.74	434.46	312.41	-460.07	279.29	437.31	-422.45	176.29	419.2	-482.18	209.33	427.01	-397.95	239.75	437.54	-504.72	112.82	412.25	-494.14	127.5	327.7	-567.97	111.68	357.14	-560.12	78.952	328.29	-570.81	78.734	391.52	-416.3	37.686	433.7	-383.28	32.549	326.95	-334.32	54.138	382.39	-118.93	588.4	153.92	-18.406	547.2	173.01	-86.263	507.53	181.62	-60.216	628.76	145.48	-4.4225	468.82	183.81	-24.063	463.16	324.34	-39.631	282.72	183.99	52.737	220.37	198.84	-19.916	212.44	201.01	25.696	290.35	182.5	44.145	106.74	210.98	57.62	110.67	292.91	-2.6589	59.217	246.8	12.255	39.476	283.05	11.08	31.136	221.51	173.28	64.841	192.31	187.51	91.191	298.54	241.4	120.46	250.89	-251.86	1384.2	336.74	-321.97	1129.7	344.66
228	0.94583	-56.67	1085.3	327.59	-165.18	1321.4	476.32	-178.62	1328	182.75	-92.59	1602.9	318.71	-105.64	905.37	440.67	-77.437	906.1	231.55	-308.43	953.57	358.25	-305.51	957.65	284.33	-205.25	801.7	520.87	-180.59	814.72	129.87	-208.85	953.21	486.11	-195.21	955.9	151.15	-336.38	912	312.9	-251.92	599.91	496.07	-220.33	509.88	457.89	-291.04	520.45	473.51	-185.49	590.34	478.16	-300.97	440.45	456.95	-312.79	433.27	312.39	-456.37	280.22	437.58	-420.37	176.62	419.51	-479.53	210.51	427.3	-394.95	239.8	437.75	-503.45	114.12	412.73	-492.5	128.86	328.19	-566.65	114.01	357.64	-559.21	81.346	328.62	-569.93	80.94	391.86	-416.12	37.625	433.79	-383.28	32.561	327.01	-334.31	53.953	382.35	-112.89	587.44	153.87	-12.419	546.21	173.24	-80.318	506.52	181.52	-54.129	627.8	145.65	1.2709	467.61	183.9	-18.206	462.08	324.17	-34.837	281.65	183.9	57.074	218.82	199.18	-15.589	211.27	200.98	30.502	288.93	182.77	47.916	105.62	211.16	61.064	109.24	293.19	0.69377	58.822	246.67	15.161	38.743	282.9	14.26	30.746	221.32	176.74	63.087	192.87	190.69	89.024	299.25	244.95	117.97	251.89	-246.33	1383.1	335.74	-316.22	1128.5	343.8
229	0.95	-50.78	1084	327.14	-159.75	1320.4	475.49	-172.75	1326.7	181.79	-87.053	1602	317.94	-99.845	904.25	440.58	-71.203	904.71	231.35	-302.55	952.42	357.65	-299.51	956.44	283.71	-199.53	800.63	520.62	-174.47	813.57	129.73	-203.23	952.09	485.76	-188.84	954.41	150.49	-330.38	910.78	312.28	-246.02	598.84	495.85	-214.26	508.79	457.88	-285	519.3	473.35	-179.54	589.31	478.13	-294.99	439.3	456.96	-306.6	432.04	312.41	-452.5	281.21	437.86	-418.18	177.04	419.87	-476.71	211.79	427.61	-391.8	239.9	438	-502.05	115.51	413.24	-490.67	130.32	328.73	-565.15	116.54	358.18	-558.17	83.943	328.98	-568.93	83.341	392.22	-415.92	37.584	433.9	-383.28	32.594	327.08	-334.3	53.759	382.31	-106.91	586.5	153.85	-6.4927	545.22	173.42	-74.427	505.53	181.45	-48.119	626.87	145.81	6.9122	466.4	183.97	-12.235	461.1	323.99	-30.223	280.65	183.86	61.155	217.25	199.56	-11.52	210.17	201.02	35.129	287.5	183.08	51.276	104.53	211.39	64.124	107.82	293.51	3.5795	58.572	246.62	17.554	38.116	282.8	16.9	30.493	221.18	179.69	61.177	193.42	193.45	86.63	299.97	248.12	115.15	252.87	-240.8	1382	334.71	-310.45	1127.3	342.91
230	0.95417	-44.877	1082.8	326.7	-154.34	1319.3	474.64	-166.85	1325.5	180.82	-81.511	1601	317.16	-94.02	903.2	440.46	-64.954	903.37	231.13	-296.65	951.29	357.05	-293.5	955.27	283.1	-193.74	799.57	520.36	-168.35	812.52	129.55	-197.58	951.03	485.41	-182.45	952.98	149.82	-324.34	909.57	311.67	-239.98	597.77	495.62	-207.98	507.7	457.9	-278.78	518.12	473.2	-173.44	588.32	478.11	-288.8	438.12	457.01	-300.17	430.75	312.46	-448.44	282.28	438.15	-415.84	177.53	420.29	-473.72	213.17	427.94	-388.49	240.06	438.29	-500.5	117.02	413.79	-488.64	131.89	329.32	-563.46	119.25	358.75	-556.97	86.753	329.36	-567.78	85.949	392.6	-415.69	37.568	434.01	-383.28	32.652	327.16	-334.28	53.551	382.27	-101.01	585.59	153.86	-0.63419	544.26	173.55	-68.598	504.58	181.42	-42.19	625.94	145.92	12.5	465.23	184.01	-6.1698	460.2	323.8	-25.768	279.74	183.88	65.012	215.68	199.99	-7.6782	209.13	201.12	39.599	286.1	183.43	54.267	103.49	211.69	66.844	106.41	293.88	6.0495	58.46	246.64	19.497	37.594	282.75	19.06	30.371	221.1	182.18	59.152	193.97	195.84	84.049	300.69	250.94	112.06	253.84	-235.26	1381	333.65	-304.66	1126.2	341.97
